<svg width="145.5" height="70.1" viewBox="0 0 145.5 70.1" xmlns="http://www.w3.org/2000/svg"><g id="svgGroup" stroke-linecap="round" fill-rule="evenodd" font-size="9pt" stroke="#ffffff" stroke-width="0.25mm" fill="#ffffff" style="stroke:#ffffff;stroke-width:0.25mm;fill:#ffffff"><path d="M 105.7 70.1 L 105.7 22.1 L 123 22.1 A 59.127 59.127 0 0 1 128.452 22.333 Q 135.375 22.977 138.9 25.4 A 16.182 16.182 0 0 1 141.682 27.737 A 11.164 11.164 0 0 1 144.35 32.35 A 25.431 25.431 0 0 1 145.005 35.436 Q 145.252 37.052 145.376 38.944 A 62.279 62.279 0 0 1 145.5 43 L 145.5 70.1 L 136.7 70.1 L 136.7 43.1 A 54.251 54.251 0 0 0 136.686 41.828 Q 136.674 41.33 136.653 40.885 A 26.626 26.626 0 0 0 136.6 40.05 A 9.274 9.274 0 0 0 136.489 39.201 Q 136.324 38.258 135.954 37.027 A 29.783 29.783 0 0 0 135.9 36.85 A 10.289 10.289 0 0 0 135.254 35.227 A 7.496 7.496 0 0 0 134.2 33.65 Q 133.1 32.4 131 31.45 A 10.061 10.061 0 0 0 128.754 30.753 Q 127.692 30.548 126.472 30.509 A 18.142 18.142 0 0 0 125.9 30.5 L 114.5 30.5 L 114.5 70.1 L 105.7 70.1 Z M 70.8 22.1 L 70.8 30.5 L 59.3 30.5 L 59.3 70.1 L 50.3 70.1 L 50.3 30.5 L 43.5 30.5 L 47.5 22.1 L 50.3 22.1 A 24.267 24.267 0 0 1 51.332 14.847 A 19.022 19.022 0 0 1 57.2 5.95 A 24.134 24.134 0 0 1 69.082 0.471 A 33.382 33.382 0 0 1 74.8 0 L 74.8 8.4 A 25.529 25.529 0 0 0 68.951 9.01 Q 59.3 11.29 59.3 22.1 L 70.8 22.1 Z M 21.6 61.3 L 38.7 61.3 L 38.7 70.1 L 24.1 70.1 Q 20.721 70.1 18.53 69.998 A 51.228 51.228 0 0 1 17.65 69.95 Q 16.071 69.849 13.973 69.342 A 41.588 41.588 0 0 1 11.8 68.75 A 17.373 17.373 0 0 1 8.392 67.338 A 14.13 14.13 0 0 1 5.9 65.6 Q 2.2 62.2 1.1 57.45 A 39.544 39.544 0 0 1 0.348 52.978 Q 0.087 50.67 0.022 48.068 A 70.509 70.509 0 0 1 0 46.3 L 0 0.1 L 9.4 0.1 L 9.4 46.1 A 42.039 42.039 0 0 0 9.527 49.481 Q 9.797 52.817 10.641 55.048 A 12.046 12.046 0 0 0 10.7 55.2 Q 13.3 61.3 21.6 61.3 Z M 91.8 22.1 L 91.8 70.1 L 83 70.1 L 83 30.5 L 74.8 30.5 L 78.8 22.1 L 91.8 22.1 Z M 82.6 12.1 Q 81.3 10.4 81.3 8.4 A 5.758 5.758 0 0 1 82.595 4.757 A 7.454 7.454 0 0 1 82.6 4.75 A 4.132 4.132 0 0 1 84.84 3.313 Q 85.531 3.127 86.36 3.104 A 8.534 8.534 0 0 1 86.6 3.1 Q 88.658 3.1 89.903 4.059 A 3.968 3.968 0 0 1 90.6 4.75 A 5.989 5.989 0 0 1 91.702 6.891 A 5.713 5.713 0 0 1 91.9 8.4 A 5.758 5.758 0 0 1 90.605 12.044 A 7.454 7.454 0 0 1 90.6 12.05 A 4.132 4.132 0 0 1 88.36 13.487 Q 87.669 13.674 86.84 13.697 A 8.534 8.534 0 0 1 86.6 13.7 A 7.211 7.211 0 0 1 85.067 13.548 Q 83.499 13.207 82.6 12.1 Z" vector-effect="non-scaling-stroke"/></g></svg>